<?xml version="1.0" encoding="UTF-8"?>
<svg version="1.1" xmlns="http://www.w3.org/2000/svg" width="512" height="512">
<path d="M0 0 C24.03321906 -0.70455691 48.98928731 7.71973057 66.7109375 24.1171875 C67.2157666 24.57577148 67.7205957 25.03435547 68.24072266 25.50683594 C85.1741402 41.02871675 96.56524327 61.08728871 99.7109375 84.1171875 C99.83920238 87.08435756 99.82774595 90.04615634 99.80859375 93.015625 C99.80647133 94.26806503 99.80647133 94.26806503 99.80430603 95.54580688 C99.79873924 98.19463792 99.78619297 100.8433823 99.7734375 103.4921875 C99.7684182 105.29557169 99.76385605 107.09895721 99.75976562 108.90234375 C99.7487807 113.30732471 99.73153913 117.71224144 99.7109375 122.1171875 C100.6283371 122.11052567 101.54573669 122.10386383 102.49093628 122.09700012 C111.17031821 122.03668981 119.84962894 121.99111225 128.5291729 121.96175098 C132.99056878 121.94614821 137.45179035 121.92500936 141.91308594 121.89086914 C146.22491272 121.85808223 150.53657266 121.84029404 154.84851456 121.83255577 C156.48701729 121.82704675 158.12551172 121.81628965 159.76394272 121.79999733 C171.51453406 121.68788282 182.09410291 121.6719762 191.01953125 130.21875 C196.26630052 136.10773353 197.82940397 141.98994982 197.84795189 149.7645216 C197.8555637 151.46313423 197.8555637 151.46313423 197.86332929 153.19606227 C197.86382705 154.43534411 197.86432481 155.67462595 197.86483765 156.95146179 C197.8688549 158.28508676 197.87329357 159.6187105 197.8781172 160.95233279 C197.89005883 164.61583897 197.89572552 168.279332 197.90029836 171.94285381 C197.90626346 175.89460476 197.91787087 179.84634007 197.92858887 183.79808044 C197.95308966 193.34005761 197.96773536 202.88203994 197.98064893 212.42403886 C197.98436216 215.11958544 197.98833527 217.81513151 197.9924016 220.51067758 C198.01763627 237.25470832 198.03968622 253.9987399 198.05212975 270.74278545 C198.05505936 274.61945791 198.05802104 278.49613034 198.06103516 282.37280273 C198.06178121 283.33631131 198.06252726 284.29981988 198.06329592 285.29252569 C198.07595069 300.90216925 198.10917716 316.51169895 198.15083699 332.12128928 C198.19326931 348.15185253 198.21682615 364.18235749 198.22205031 380.21297675 C198.22546263 389.21180704 198.23719699 398.21045927 198.27015305 407.20923424 C198.29817235 414.87246263 198.30914457 422.53547643 198.29795758 430.19875207 C198.292776 434.10693647 198.2956247 438.01467159 198.32042313 441.92279053 C198.34296443 445.50516853 198.34213897 449.08677579 198.32321925 452.66916773 C198.31910932 454.56934769 198.33952887 456.46953268 198.36100614 458.36959571 C198.27164688 468.05148037 195.92332768 475.12670328 189.0234375 482.0546875 C181.33509917 488.99294404 170.20675691 488.54792696 160.51611328 488.49813843 C159.09567468 488.50160043 157.67523878 488.50636863 156.25480843 488.51232016 C152.37449264 488.52478537 148.49439963 488.51868035 144.61408329 488.50936151 C140.42042126 488.50255289 136.22679661 488.5130612 132.03314209 488.52130127 C123.82682495 488.5346215 115.62059026 488.53176849 107.41426992 488.52306335 C100.74315306 488.51628047 94.07205926 488.51537269 87.40093994 488.5186348 C86.4504578 488.5190945 85.49997566 488.51955419 84.52069104 488.52002782 C82.58963568 488.52098703 80.65858034 488.52195967 78.727525 488.5229456 C60.63193196 488.53149448 42.53638455 488.52167323 24.440799 488.5055445 C8.92340044 488.49214178 -6.59393078 488.49447001 -22.11132812 488.50830078 C-40.14341146 488.52436545 -58.17545483 488.53067056 -76.20754433 488.52146399 C-78.13138453 488.52050837 -80.05522473 488.51956526 -81.97906494 488.5186348 C-82.92556188 488.51817197 -83.87205881 488.51770914 -84.84723747 488.51723229 C-91.50817379 488.51464507 -98.1690847 488.51900763 -104.83001709 488.52607346 C-112.95057332 488.5344985 -121.07104258 488.5321872 -129.19158888 488.51623122 C-133.33259077 488.50836203 -137.47344781 488.50523379 -141.61444855 488.51517868 C-145.40927456 488.52415419 -149.20382218 488.51914606 -152.99862313 488.50324602 C-155.01285542 488.49833678 -157.02710721 488.50806911 -159.04131889 488.51841772 C-168.96970002 488.45433347 -178.11166979 487.56727839 -185.38721949 480.26164764 C-192.22558033 472.55092065 -193.0128531 464.55984364 -192.91725159 454.59898376 C-192.92230521 453.25207294 -192.92954032 451.90516887 -192.93874973 450.55828005 C-192.95758333 446.88110688 -192.94548939 443.20460371 -192.9280268 439.52744806 C-192.91460796 435.55260127 -192.93010594 431.57784963 -192.94184875 427.60301208 C-192.96019566 419.8261022 -192.95173305 412.04944413 -192.93376053 404.27254217 C-192.9197168 397.95085259 -192.91584554 391.62923122 -192.9192028 385.30752754 C-192.91968025 384.40671318 -192.92015769 383.50589882 -192.9206496 382.57778706 C-192.92167596 380.74763197 -192.92273132 378.91747689 -192.92381536 377.08732183 C-192.93237633 360.91648132 -192.9157265 344.74576215 -192.88598633 328.57495117 C-192.85714561 312.89293319 -192.85006844 297.21108997 -192.86547852 281.52905273 C-192.88224826 264.44001624 -192.88626736 247.35106265 -192.86876816 230.26202399 C-192.86692382 228.43902656 -192.86508909 226.61602913 -192.86326408 224.79303169 C-192.86235199 223.89614803 -192.8614399 222.99926437 -192.86050018 222.07520242 C-192.85489996 215.76244611 -192.85819711 209.44973035 -192.86480904 203.13697624 C-192.87254897 195.44198734 -192.86576575 187.7471703 -192.840634 180.05221599 C-192.82815478 176.1280044 -192.82197317 172.20406018 -192.83317566 168.27983856 C-192.84324619 164.68419598 -192.83469938 161.08908561 -192.81159448 157.49350757 C-192.80402551 155.58392278 -192.81596059 153.67429104 -192.82869822 151.76473373 C-192.75025465 143.61810671 -191.44452198 137.45686371 -186.61328125 130.8125 C-179.26619198 123.76350266 -172.0347908 121.9864452 -161.9284668 122.00366211 C-161.20597244 122.00351608 -160.48347809 122.00337006 -159.73908997 122.0032196 C-157.36378928 122.00391328 -154.98856815 122.01168005 -152.61328125 122.01953125 C-150.96132958 122.02139737 -149.30937735 122.02282036 -147.65742493 122.02381897 C-143.31898458 122.02762889 -138.98057795 122.03744611 -134.64215088 122.04852295 C-130.21130835 122.0587699 -125.78046035 122.06332362 -121.34960938 122.06835938 C-112.66274498 122.07906979 -103.97590794 122.09612784 -95.2890625 122.1171875 C-95.29266281 121.28189514 -95.29626312 120.44660278 -95.29997253 119.58599854 C-95.31177462 116.45074588 -95.32035096 113.31550465 -95.326828 110.18023682 C-95.33193562 108.17044314 -95.3406768 106.16065976 -95.3494873 104.15087891 C-95.39397816 78.41089671 -89.18977789 53.46349331 -71.2890625 34.1171875 C-70.83047852 33.6123584 -70.37189453 33.1075293 -69.89941406 32.58740234 C-53.05474486 14.210904 -29.70336697 1.64697505 -4.453125 0.171875 C-2.96811888 0.13434777 -1.4835374 0.07594901 0 0 Z M-33.2890625 65.1171875 C-47.19798979 83.94773522 -45.2890625 97.03351193 -45.2890625 122.1171875 C-13.6090625 122.1171875 18.0709375 122.1171875 50.7109375 122.1171875 C51.74914341 90.17407666 51.74914341 90.17407666 37.52734375 63.73828125 C25.7583399 53.23476169 12.15127412 49.23434841 -3.25878906 49.93798828 C-14.20399634 50.90405155 -25.62357753 57.45170253 -33.2890625 65.1171875 Z " fill="#033573" transform="translate(253.2890625,11.8828125)"/>
</svg>
